<svg version="1.1" id="Layer_1" xmlns="http://www.w3.org/2000/svg" xmlns:xlink="http://www.w3.org/1999/xlink" x="0px" y="0px"
	 width="100%" viewBox="0 0 120 120" enable-background="new 0 0 120 120" xml:space="preserve">
<path fill="#F234EF" opacity="1.000000" stroke="none"
	d="
M19.951744,2.891562
	C20.188787,2.413453 20.425831,1.935343 20.331436,1.228617
	C45.687561,1.000000 71.375122,1.000000 97.531342,1.000000
	C97.992523,1.698067 97.985046,2.396134 97.529510,3.537238
	C88.056892,4.598096 79.032333,5.215917 69.848114,5.481117
	C67.981308,4.752201 66.276382,4.061671 64.566681,4.049621
	C51.596165,3.958203 38.624386,4.044563 25.653912,3.950284
	C23.750725,3.936451 21.852346,3.260926 19.951744,2.891562
z"/>
<path fill="#0AA066" opacity="1.000000" stroke="none"
	d="
M44.082367,115.113274
	C42.279564,116.848022 40.476761,118.582764 38.836979,120.658752
	C35.638714,121.000000 32.277424,121.000000 28.458069,121.000000
	C27.111256,120.225029 26.222511,119.450058 25.277874,118.220085
	C25.221983,117.765083 25.525864,117.444939 25.872871,117.608826
	C30.953220,119.642502 35.519020,119.121712 40.251320,116.737839
	C41.377232,116.145012 42.211113,115.624130 43.304504,115.088318
	C43.736801,115.086685 43.909584,115.099976 44.082367,115.113274
z"/>
<path fill="#842FB4" opacity="1.000000" stroke="none"
	d="
M98.053902,31.130379
	C96.685959,35.611183 92.864899,34.946301 89.580391,34.958740
	C69.493393,35.034813 49.405228,35.092838 29.319126,34.938377
	C23.306244,34.892143 18.326330,36.170059 15.032856,42.036587
	C15.032856,38.987213 15.032856,35.937836 15.557385,32.443012
	C25.810553,31.998360 35.540131,32.074829 45.267254,31.953819
	C48.184711,31.917522 51.095322,31.330454 54.476753,30.999189
	C69.281082,30.896040 83.617722,30.789413 98.000732,30.789907
	C98.047096,30.897028 98.053902,31.130379 98.053902,31.130379
z"/>
<path fill="#E6806D" opacity="1.000000" stroke="none"
	d="
M81.111382,68.956139
	C79.568649,73.091820 76.921822,74.975151 72.353905,74.986023
	C59.085381,75.017609 45.811043,74.778000 32.551262,75.120285
	C27.956377,75.238892 23.400635,76.769127 18.819880,77.616013
	C17.720951,77.819191 16.593542,77.868317 15.018691,78.037880
	C15.018691,75.128380 15.018691,72.504539 15.287780,69.436813
	C15.556869,68.992928 15.944831,68.999077 16.259169,69.248688
	C24.652498,69.998772 32.728416,70.558777 40.811699,70.976219
	C45.282875,71.207123 49.767376,71.312340 54.244091,71.272705
	C60.991489,71.212959 67.738968,71.017204 74.480934,70.744011
	C75.061562,70.720490 75.601288,69.687355 76.512741,69.108040
	C77.574196,69.048744 78.282921,69.004623 79.344986,68.973877
	C80.169342,68.976875 80.640366,68.966507 81.111382,68.956139
z"/>
<path fill="#9323CF" opacity="1.000000" stroke="none"
	d="
M103.834015,23.005665
	C103.577766,23.492224 103.321518,23.978783 102.603348,24.735502
	C101.094299,25.336098 100.047165,25.666529 98.600510,25.997158
	C96.465813,26.328537 94.730644,26.659716 92.544250,26.992233
	C86.729393,26.992886 81.365753,26.992199 75.780556,26.751606
	C74.039246,26.342865 72.519493,26.174030 70.578529,26.005028
	C63.438641,26.004339 56.719971,26.003820 49.535690,26.001839
	C39.713261,25.667885 30.356440,25.335396 20.868774,24.714836
	C20.493246,23.628290 20.248560,22.829817 20.367214,22.020033
	C21.454504,21.994190 22.178455,21.979656 23.292225,22.131332
	C25.809118,22.531523 27.935795,22.964739 30.063335,22.969042
	C54.653488,23.018784 79.243767,23.003607 103.834015,23.005665
z"/>
<path fill="#8C21C9" opacity="1.000000" stroke="none"
	d="
M103.952705,22.737616
	C79.243767,23.003607 54.653488,23.018784 30.063335,22.969042
	C27.935795,22.964739 25.809118,22.531523 23.467590,21.876579
	C24.172203,20.660601 25.091269,19.865583 26.360292,19.049389
	C27.404869,18.992905 28.099487,18.957602 29.191246,19.089939
	C31.719624,19.505171 33.850300,19.962116 35.982185,19.967825
	C56.312698,20.022264 76.643555,19.964079 96.973892,20.044712
	C99.600502,20.055128 102.224701,20.670288 104.850021,21.005318
	C104.590477,21.493401 104.330933,21.981483 103.952705,22.737616
z"/>
<path fill="#841EC1" opacity="1.000000" stroke="none"
	d="
M104.914368,20.608822
	C102.224701,20.670288 99.600502,20.055128 96.973892,20.044712
	C76.643555,19.964079 56.312698,20.022264 35.982185,19.967825
	C33.850300,19.962116 31.719624,19.505171 29.418606,18.818504
	C31.503103,17.260706 33.757381,16.141989 36.264565,15.043693
	C36.684372,15.091577 36.851276,15.119039 37.170555,15.501797
	C39.193752,16.238197 41.063286,16.943258 42.935596,16.950718
	C63.568115,17.032928 84.201073,17.006649 104.833908,17.009771
	C104.882172,18.077290 104.930435,19.144806 104.914368,20.608822
z"/>
<path fill="#05C97D" opacity="1.000000" stroke="none"
	d="
M17.876568,91.966408
	C22.110435,82.382378 37.033394,80.639969 44.898685,87.442467
	C46.468590,88.800224 47.629795,90.630531 48.590446,92.606476
	C46.140755,92.985672 44.080063,93.001335 41.549583,93.012650
	C33.345383,92.660995 25.610975,92.313705 17.876568,91.966408
z"/>
<path fill="#FBC581" opacity="1.000000" stroke="none"
	d="
M18.882118,45.960430
	C21.170357,44.639389 23.441307,42.210712 25.749603,42.174686
	C42.385586,41.915031 59.029133,42.140133 75.592758,42.881577
	C68.686165,44.412525 61.857098,45.273441 54.681221,46.231117
	C52.234535,46.909679 50.134655,47.491489 47.705666,47.812107
	C42.945068,47.367302 38.510590,47.236443 34.082867,46.986176
	C29.012823,46.699604 23.948772,46.306976 18.882118,45.960430
z"/>
<path fill="#7C1CBA" opacity="1.000000" stroke="none"
	d="
M104.901733,16.637997
	C84.201073,17.006649 63.568115,17.032928 42.935596,16.950718
	C41.063286,16.943258 39.193752,16.238197 37.518238,15.409093
	C39.827415,13.987852 41.941288,13.014611 44.383804,12.038284
	C45.147732,12.084073 45.583008,12.132946 46.174622,12.533567
	C48.205624,13.256943 50.078773,13.942279 51.955200,13.951385
	C69.581032,14.036918 87.207428,14.006845 104.833656,14.010168
	C104.878960,14.762186 104.924263,15.514204 104.901733,16.637997
z"/>
<path fill="#7419B2" opacity="1.000000" stroke="none"
	d="
M104.899643,13.673372
	C87.207428,14.006845 69.581032,14.036918 51.955200,13.951385
	C50.078773,13.942279 48.205624,13.256943 46.527126,12.430822
	C48.496281,11.349103 50.269264,10.721875 52.405476,10.045258
	C54.183876,9.713517 55.599045,9.431165 57.167480,9.503847
	C58.850670,10.239075 60.379005,10.941641 61.910770,10.949193
	C75.980049,11.018555 90.049927,10.967451 104.119629,10.951446
	C104.401634,11.746490 104.683632,12.541533 104.899643,13.673372
z"/>
<path fill="#FC815D" opacity="1.000000" stroke="none"
	d="
M85.833771,55.001854
	C85.882858,55.753857 85.931946,56.505863 85.449417,57.628925
	C69.481331,57.999832 54.044594,58.043732 38.608677,57.951145
	C36.342064,57.937550 34.079346,57.275536 32.024426,56.655331
	C33.826900,55.273468 35.419777,54.149818 37.264763,53.032539
	C37.684380,53.053314 37.851891,53.067719 38.163017,53.441536
	C40.168053,54.200653 42.027130,54.933830 43.891262,54.946922
	C57.871536,55.045132 71.852814,55.001259 85.833771,55.001854
z"/>
<path fill="#FC6E62" opacity="1.000000" stroke="none"
	d="
M48.034775,48.073303
	C50.134655,47.491489 52.234535,46.909679 54.827950,46.584854
	C55.852993,47.185688 56.380215,47.821213 56.916676,47.829109
	C63.652924,47.928318 70.392387,48.022259 77.125694,47.874355
	C78.111214,47.852707 79.069016,46.569073 80.039642,45.869362
	C80.963882,46.681522 81.888138,47.493690 82.882050,49.001717
	C81.371445,50.464661 79.804771,51.861176 78.208694,51.895630
	C68.596741,52.103130 58.977188,52.064697 49.362305,51.942154
	C47.441383,51.917671 45.529636,51.173325 43.879688,50.566010
	C45.442070,49.605175 46.738422,48.839237 48.034775,48.073303
z"/>
<path fill="#FB9159" opacity="1.000000" stroke="none"
	d="
M85.832153,60.004898
	C85.460220,60.934902 85.088280,61.864910 83.938965,62.908321
	C65.699799,63.014469 48.237823,63.044037 30.776451,62.955036
	C28.501471,62.943436 26.229597,62.321686 24.125717,61.715080
	C25.182428,60.945747 26.069704,60.443893 27.198635,60.173813
	C28.294054,60.603073 29.147816,60.800564 30.457848,60.998154
	C49.220127,60.667137 67.526138,60.336018 85.832153,60.004898
z"/>
<path fill="#F7BA7E" opacity="1.000000" stroke="none"
	d="
M47.705666,47.812111
	C46.738422,48.839237 45.442070,49.605175 43.562996,50.636581
	C41.326649,51.628738 39.673023,52.355431 38.019398,53.082123
	C37.851891,53.067719 37.684380,53.053314 36.933010,52.780281
	C33.574863,52.347618 30.797113,52.215988 28.027121,51.989483
	C23.998762,51.660076 19.975994,51.262302 15.950843,50.893684
	C16.718779,49.334274 17.486713,47.774864 18.568384,46.087944
	C23.948772,46.306976 29.012823,46.699604 34.082867,46.986176
	C38.510590,47.236443 42.945068,47.367302 47.705666,47.812111
z"/>
<path fill="#FC785F" opacity="1.000000" stroke="none"
	d="
M38.163017,53.441536
	C39.673023,52.355431 41.326649,51.628738 43.296967,50.831478
	C45.529636,51.173325 47.441383,51.917671 49.362305,51.942154
	C58.977188,52.064697 68.596741,52.103130 78.208694,51.895630
	C79.804771,51.861176 81.371445,50.464661 82.997833,49.290035
	C83.951271,50.686993 84.858582,52.491493 85.799835,54.648922
	C71.852814,55.001259 57.871536,55.045132 43.891262,54.946922
	C42.027130,54.933830 40.168053,54.200653 38.163017,53.441536
z"/>
<path fill="#06BF78" opacity="1.000000" stroke="none"
	d="
M17.572697,92.143867
	C25.610975,92.313705 33.345383,92.660995 41.545139,93.343460
	C42.006889,94.120232 42.003296,94.561844 41.671780,95.059502
	C39.891251,96.398666 38.438641,97.681778 36.659000,98.971977
	C35.896236,98.989319 35.460503,98.999573 34.554878,99.007431
	C27.779364,99.000488 21.473740,98.995941 15.168116,98.991386
	C15.868353,96.768036 16.568590,94.544678 17.572697,92.143867
z"/>
<path fill="#6C17AB" opacity="1.000000" stroke="none"
	d="
M104.066696,10.636196
	C90.049927,10.967451 75.980049,11.018555 61.910770,10.949193
	C60.379005,10.941641 58.850670,10.239075 57.508091,9.406936
	C59.163620,8.323236 60.631802,7.691481 62.497078,7.037601
	C64.736557,6.942251 66.578934,6.869025 68.850830,6.968561
	C71.070885,7.427159 72.859688,7.946262 74.652260,7.959603
	C83.809593,8.027755 92.967903,7.965355 102.125870,7.948620
	C102.755165,8.739396 103.384460,9.530172 104.066696,10.636196
z"/>
<path fill="#FB875B" opacity="1.000000" stroke="none"
	d="
M85.903229,59.673374
	C67.526138,60.336018 49.220127,60.667137 30.414537,60.686428
	C29.614382,59.595303 29.313805,58.816006 29.284750,57.894146
	C30.309124,57.472233 31.061974,57.192883 31.814823,56.913536
	C34.079346,57.275536 36.342064,57.937550 38.608677,57.951145
	C54.044594,58.043732 69.481331,57.999832 85.375809,58.000153
	C85.880653,58.447498 85.927483,58.894672 85.903229,59.673374
z"/>
<path fill="#FB9C56" opacity="1.000000" stroke="none"
	d="
M81.139816,68.654434
	C80.640366,68.966507 80.169342,68.976875 79.238632,68.643448
	C77.518944,67.866943 76.258942,67.434235 74.530411,67.001358
	C56.041195,67.001152 38.020515,67.001129 19.862553,66.800316
	C19.513601,66.347816 19.263332,66.143356 19.116417,65.734314
	C19.835171,64.986969 20.411972,64.491440 21.372437,64.161942
	C23.710899,64.551880 25.665064,64.963440 27.620598,64.970039
	C43.343788,65.023155 59.067551,64.950005 74.790321,65.046814
	C77.565163,65.063904 80.336235,65.693428 83.109047,66.040131
	C82.462112,66.810997 81.815178,67.581856 81.139816,68.654434
z"/>
<path fill="#FB9657" opacity="1.000000" stroke="none"
	d="
M83.416679,65.887978
	C80.336235,65.693428 77.565163,65.063904 74.790321,65.046814
	C59.067551,64.950005 43.343788,65.023155 27.620598,64.970039
	C25.665064,64.963440 23.710899,64.551880 21.493481,63.911015
	C21.499517,63.006546 21.768175,62.519024 22.357025,62.024078
	C23.103575,62.005291 23.529928,61.993923 23.956284,61.982552
	C26.229597,62.321686 28.501471,62.943436 30.776451,62.955036
	C48.237823,63.044037 65.699799,63.014469 83.637375,63.031677
	C83.983543,63.939693 83.853928,64.837761 83.416679,65.887978
z"/>
<path fill="#9A26D6" opacity="1.000000" stroke="none"
	d="
M20.999619,25.002909
	C30.356440,25.335396 39.713261,25.667885 49.428600,26.334789
	C48.195412,27.765306 46.603710,28.861408 44.546997,29.967854
	C34.442566,29.643360 24.803148,29.308529 15.163729,28.973696
	C15.474641,27.545649 15.785552,26.117603 16.559614,24.734171
	C18.348383,24.853493 19.674002,24.928200 20.999619,25.002909
z"/>
<path fill="#E234E6" opacity="1.000000" stroke="none"
	d="
M62.099983,7.059725
	C60.631802,7.691481 59.163620,8.323236 57.354828,9.051903
	C55.599045,9.431165 54.183876,9.713517 52.142281,9.759668
	C47.990299,9.187715 44.470959,8.676384 40.937943,8.551348
	C32.589386,8.255885 24.234327,8.144165 15.881897,7.958143
	C16.366354,7.020156 16.850813,6.082170 17.966946,5.281930
	C20.390156,5.613207 22.180897,5.965255 23.973352,5.974209
	C34.584999,6.027221 45.197598,5.944331 55.808483,6.048713
	C57.908760,6.069375 60.002975,6.706751 62.099983,7.059725
z"/>
<path fill="#EA34EA" opacity="1.000000" stroke="none"
	d="
M62.497078,7.037601
	C60.002975,6.706751 57.908760,6.069375 55.808483,6.048713
	C45.197598,5.944331 34.584999,6.027221 23.973352,5.974209
	C22.180897,5.965255 20.390156,5.613207 18.272913,5.153921
	C18.431091,4.289630 18.914980,3.691095 19.675306,2.992061
	C21.852346,3.260926 23.750725,3.936451 25.653912,3.950284
	C38.624386,4.044563 51.596165,3.958203 64.566681,4.049621
	C66.276382,4.061671 67.981308,4.752201 69.549118,5.592821
	C69.080299,6.303362 68.750809,6.549580 68.421318,6.795798
	C66.578934,6.869025 64.736557,6.942251 62.497078,7.037601
z"/>
<path fill="#6514A3" opacity="1.000000" stroke="none"
	d="
M68.850830,6.968561
	C68.750809,6.549580 69.080299,6.303362 69.708786,5.945441
	C79.032333,5.215917 88.056892,4.598096 97.550323,3.965397
	C99.348831,5.054049 100.678467,6.157578 102.066986,7.604863
	C92.967903,7.965355 83.809593,8.027755 74.652260,7.959603
	C72.859688,7.946262 71.070885,7.427159 68.850830,6.968561
z"/>
<path fill="#47D089" opacity="1.000000" stroke="none"
	d="
M44.381805,114.964966
	C43.909584,115.099976 43.736801,115.086685 43.162113,114.708893
	C36.156525,114.063492 29.553528,113.753532 22.946901,113.596329
	C22.648975,113.589249 22.318142,114.965240 21.973352,115.814682
	C21.944069,115.932335 21.993027,116.169823 21.993027,116.169823
	C20.335133,114.367538 18.677240,112.565254 17.336826,110.255089
	C19.418911,109.487946 21.183516,109.228676 23.363375,109.051964
	C31.793903,109.397842 39.809181,109.661156 47.882568,109.968193
	C47.940685,110.011909 48.080750,110.051094 48.080750,110.051094
	C46.947582,111.639618 45.814411,113.228142 44.381805,114.964966
z"/>
<path fill="#F4AF7A" opacity="1.000000" stroke="none"
	d="
M32.024422,56.655327
	C31.061974,57.192883 30.309124,57.472233 29.033291,57.891659
	C28.342909,58.038414 28.175512,58.045097 27.685543,57.797192
	C23.297585,57.359581 19.232195,57.176556 15.166804,56.993530
	C15.192014,55.094528 15.217223,53.195522 15.596638,51.095100
	C19.975994,51.262302 23.998762,51.660076 28.027121,51.989483
	C30.797113,52.215988 33.574863,52.347618 36.680901,52.773911
	C35.419777,54.149818 33.826900,55.273468 32.024422,56.655327
z"/>
<path fill="#D933E1" opacity="1.000000" stroke="none"
	d="
M15.569399,8.110840
	C24.234327,8.144165 32.589386,8.255885 40.937943,8.551348
	C44.470959,8.676384 47.990299,9.187715 51.779053,9.809057
	C50.269264,10.721875 48.496281,11.349103 46.370792,12.079075
	C45.583008,12.132946 45.147732,12.084073 43.997475,11.865377
	C33.910240,11.461549 24.537987,11.227545 15.165731,10.993540
	C15.196121,10.083539 15.226511,9.173538 15.569399,8.110840
z"/>
<path fill="#8B2FB8" opacity="1.000000" stroke="none"
	d="
M15.095335,29.348263
	C24.803148,29.308529 34.442566,29.643360 44.982658,29.980076
	C48.591911,30.319876 51.300491,30.657793 54.009068,30.995710
	C51.095322,31.330454 48.184711,31.917522 45.267254,31.953819
	C35.540131,32.074829 25.810553,31.998360 15.624158,31.996128
	C15.119914,31.237406 15.073427,30.480118 15.095335,29.348263
z"/>
<path fill="#FD6564" opacity="1.000000" stroke="none"
	d="
M79.918243,45.573708
	C79.069016,46.569073 78.111214,47.852707 77.125694,47.874355
	C70.392387,48.022259 63.652924,47.928318 56.916676,47.829109
	C56.380215,47.821213 55.852993,47.185688 55.174751,46.488098
	C61.857098,45.273441 68.686165,44.412525 75.825851,43.258034
	C77.356598,43.735657 78.576721,44.506851 79.918243,45.573708
z"/>
<path fill="#07B873" opacity="1.000000" stroke="none"
	d="
M15.099764,99.404373
	C21.473740,98.995941 27.779364,99.000488 34.474228,99.315353
	C33.899452,100.743629 32.935440,101.861588 31.684544,103.114845
	C30.277882,103.848053 29.158108,104.445946 27.709036,104.791451
	C23.309317,104.356834 19.238897,104.174614 15.168476,103.992386
	C15.122787,102.600708 15.077100,101.209038 15.099764,99.404373
z"/>
<path fill="#CF33DC" opacity="1.000000" stroke="none"
	d="
M15.092361,11.364656
	C24.537987,11.227545 33.910240,11.461549 43.668827,11.868462
	C41.941288,13.014611 39.827415,13.987852 37.365860,15.053797
	C36.851276,15.119039 36.684372,15.091577 35.932724,14.792106
	C28.621098,14.344069 21.894211,14.168040 15.167325,13.992012
	C15.117880,13.239933 15.068436,12.487852 15.092361,11.364656
z"/>
<path fill="#33C782" opacity="1.000000" stroke="none"
	d="
M28.038334,105.043839
	C29.158108,104.445946 30.277882,103.848053 32.154121,103.121399
	C38.549698,103.657013 44.188812,104.321388 49.827923,104.985764
	C49.453323,106.557388 49.078724,108.129005 48.392437,109.875862
	C48.080750,110.051094 47.940685,110.011909 47.894363,109.585648
	C46.591503,108.439766 45.386158,107.223236 44.069462,107.087593
	C38.721272,106.536652 33.338909,106.317474 27.984573,105.742790
	C28.000000,105.509628 28.038336,105.043846 28.038334,105.043839
z"/>
<path fill="#C432D6" opacity="1.000000" stroke="none"
	d="
M15.094120,14.363083
	C21.894211,14.168040 28.621098,14.344069 35.679825,14.771684
	C33.757381,16.141989 31.503103,17.260706 29.021465,18.650860
	C28.099487,18.957602 27.404869,18.992905 26.228951,18.676586
	C22.219440,17.880228 18.691233,17.435493 15.163024,16.990759
	C15.115654,16.238558 15.068285,15.486356 15.094120,14.363083
z"/>
<path fill="#29C27E" opacity="1.000000" stroke="none"
	d="
M50.004608,104.650970
	C44.188812,104.321388 38.549698,103.657013 32.441010,102.986084
	C32.935440,101.861588 33.899452,100.743629 34.944118,99.317749
	C35.460503,98.999573 35.896236,98.989319 36.986214,99.225266
	C41.761173,99.646614 45.881886,99.821762 50.209457,100.002899
	C50.416309,100.008896 50.830013,100.021255 50.830013,100.021255
	C50.613773,101.452896 50.397533,102.884544 50.004608,104.650970
z"/>
<path fill="#08B170" opacity="1.000000" stroke="none"
	d="
M27.709038,104.791458
	C28.038336,105.043846 28.000000,105.509628 27.651318,105.797165
	C25.851128,107.046280 24.399624,108.007843 22.948120,108.969406
	C21.183516,109.228676 19.418911,109.487946 17.308033,109.912804
	C16.319780,108.299889 15.677799,106.521385 15.102148,104.367630
	C19.238897,104.174614 23.309317,104.356834 27.709038,104.791458
z"/>
<path fill="#B731CF" opacity="1.000000" stroke="none"
	d="
M15.090474,17.375525
	C18.691233,17.435493 22.219440,17.880228 25.878990,18.697763
	C25.091269,19.865583 24.172203,20.660601 23.077772,21.710369
	C22.178455,21.979656 21.454504,21.994190 20.040073,22.055935
	C18.535271,22.422148 17.720945,22.741150 16.906618,23.060152
	C16.277054,21.293531 15.647489,19.526911 15.090474,17.375525
z"/>
<path fill="#F1A377" opacity="1.000000" stroke="none"
	d="
M15.092002,57.389294
	C19.232195,57.176556 23.297585,57.359581 27.567017,58.039703
	C27.499701,59.005215 27.228340,59.473629 26.956980,59.942039
	C26.069704,60.443893 25.182428,60.945747 24.125717,61.715080
	C23.529928,61.993923 23.103575,62.005291 22.003330,61.863144
	C19.274714,61.471207 17.219984,61.232784 15.165255,60.994362
	C15.115903,59.924595 15.066551,58.854824 15.092002,57.389294
z"/>
<path fill="#ED9873" opacity="1.000000" stroke="none"
	d="
M15.091252,61.433372
	C17.219984,61.232784 19.274714,61.471207 21.683138,61.870567
	C21.768175,62.519024 21.499517,63.006546 21.109818,63.744991
	C20.411972,64.491440 19.835171,64.986969 18.865353,65.876190
	C17.978168,66.846931 17.483999,67.423973 16.842749,68.194061
	C16.479527,68.632965 16.229246,68.836960 15.944831,68.999077
	C15.944831,68.999077 15.556869,68.992928 15.362897,68.989227
	C15.118366,66.614479 15.067808,64.243431 15.091252,61.433372
z"/>
<path fill="#15BB77" opacity="1.000000" stroke="none"
	d="
M50.896820,99.639984
	C50.830013,100.021255 50.416309,100.008896 50.173470,99.615265
	C48.728020,98.482491 47.559238,97.679321 46.313797,97.021225
	C44.911816,96.280411 43.440727,95.670380 41.999702,95.003464
	C42.003296,94.561844 42.006889,94.120232 42.014931,93.347809
	C44.080063,93.001335 46.140755,92.985672 48.644783,92.952156
	C49.088123,92.934303 49.037647,92.961884 49.060997,93.216919
	C49.330608,93.967972 49.576874,94.463997 49.823135,94.960022
	C50.203300,96.392921 50.583462,97.825821 50.896820,99.639984
z"/>
<path fill="#9A26D6" opacity="1.000000" stroke="none"
	d="
M92.995483,26.990894
	C94.730644,26.659716 96.465813,26.328537 98.788284,26.225391
	C99.933754,27.004723 100.491920,27.556019 101.050087,28.107317
	C100.240173,29.029781 99.430260,29.952244 98.337120,31.002544
	C98.053902,31.130379 98.047096,30.897028 97.976936,30.454056
	C96.269676,29.004356 94.632584,27.997625 92.995483,26.990894
z"/>
<path fill="#9625D3" opacity="1.000000" stroke="none"
	d="
M16.914478,23.248913
	C17.720945,22.741150 18.535271,22.422148 19.676735,22.067244
	C20.248560,22.829817 20.493246,23.628290 20.868774,24.714836
	C19.674002,24.928200 18.348383,24.853493 16.817154,24.452377
	C16.735594,23.905773 16.839193,23.676340 16.914478,23.248913
z"/>
<path fill="#9625D3" opacity="1.000000" stroke="none"
	d="
M101.352158,27.969713
	C100.491920,27.556019 99.933754,27.004723 99.187813,26.225193
	C100.047165,25.666529 101.094299,25.336098 102.486801,25.004578
	C102.439522,25.946363 102.046875,26.889236 101.352158,27.969713
z"/>
<path fill="#0AA066" opacity="1.000000" stroke="none"
	d="
M25.069977,117.925095
	C24.032331,117.632576 23.146692,117.180054 22.127041,116.448669
	C21.993027,116.169823 21.944069,115.932335 22.276966,115.939407
	C23.424694,116.256752 24.239527,116.567032 25.162586,117.027237
	C25.270815,117.177155 25.525864,117.444939 25.525864,117.444939
	C25.525864,117.444939 25.221983,117.765083 25.069977,117.925095
z"/>
<path fill="#05C97D" opacity="1.000000" stroke="none"
	d="
M49.880928,94.655472
	C49.576874,94.463997 49.330608,93.967972 49.066322,93.188919
	C49.345108,93.387566 49.641914,93.869247 49.880928,94.655472
z"/>
<path fill="#56D78E" opacity="1.000000" stroke="none"
	d="
M25.872871,117.608826
	C25.525864,117.444939 25.270815,117.177155 25.300499,116.671158
	C30.283745,114.628227 35.214890,113.600021 39.959290,116.809792
	C35.519020,119.121712 30.953220,119.642502 25.872871,117.608826
z"/>
<path fill="#4FD48C" opacity="1.000000" stroke="none"
	d="
M40.251320,116.737839
	C35.214890,113.600021 30.283745,114.628227 25.192268,116.521233
	C24.239527,116.567032 23.424694,116.256752 22.306250,115.821747
	C22.318142,114.965240 22.648975,113.589249 22.946901,113.596329
	C29.553528,113.753532 36.156525,114.063492 42.902603,114.723824
	C42.211113,115.624130 41.377232,116.145012 40.251320,116.737839
z"/>
<path fill="#9E27DA" opacity="1.000000" stroke="none"
	d="
M92.544250,26.992233
	C94.632584,27.997625 96.269676,29.004356 97.930573,30.346935
	C83.617722,30.789413 69.281082,30.896040 54.476753,30.999189
	C51.300491,30.657793 48.591911,30.319876 45.447670,29.969736
	C46.603710,28.861408 48.195412,27.765306 49.894211,26.336254
	C56.719971,26.003820 63.438641,26.004339 70.681778,26.334116
	C72.804878,26.772753 74.403496,26.882132 76.002121,26.991512
	C81.365753,26.992199 86.729393,26.992886 92.544250,26.992233
z"/>
<path fill="#FAA454" opacity="1.000000" stroke="none"
	d="
M16.259169,69.248688
	C16.229246,68.836960 16.479527,68.632965 17.173803,68.184250
	C18.434570,67.654625 19.217203,67.327866 19.999836,67.001106
	C38.020515,67.001129 56.041195,67.001152 74.584541,67.307304
	C75.458145,68.116684 75.809074,68.619949 76.160011,69.123207
	C75.601288,69.687355 75.061562,70.720490 74.480934,70.744011
	C67.738968,71.017204 60.991489,71.212959 54.244091,71.272705
	C49.767376,71.312340 45.282875,71.207123 40.811699,70.976219
	C32.728416,70.558777 24.652498,69.998772 16.259169,69.248688
z"/>
<path fill="#FAA055" opacity="1.000000" stroke="none"
	d="
M76.512741,69.108040
	C75.809074,68.619949 75.458145,68.116684 75.053078,67.307480
	C76.258942,67.434235 77.518944,67.866943 78.885292,68.630074
	C78.282921,69.004623 77.574196,69.048744 76.512741,69.108040
z"/>
<path fill="#9A26D6" opacity="1.000000" stroke="none"
	d="
M75.780556,26.751606
	C74.403496,26.882132 72.804878,26.772753 71.102997,26.334284
	C72.519493,26.174030 74.039246,26.342865 75.780556,26.751606
z"/>
<path fill="#FB8C5A" opacity="1.000000" stroke="none"
	d="
M27.198635,60.173813
	C27.228340,59.473629 27.499701,59.005215 27.889587,58.294289
	C28.175512,58.045097 28.342909,58.038414 28.761766,58.034222
	C29.313805,58.816006 29.614382,59.595303 29.958269,60.686325
	C29.147816,60.800564 28.294054,60.603073 27.198635,60.173813
z"/>
<path fill="#1FBE7A" opacity="1.000000" stroke="none"
	d="
M41.671776,95.059509
	C43.440727,95.670380 44.911816,96.280411 46.313797,97.021225
	C47.559238,97.679321 48.728020,98.482491 49.966618,99.609268
	C45.881886,99.821762 41.761173,99.646614 37.313248,99.218178
	C38.438641,97.681778 39.891251,96.398666 41.671776,95.059509
z"/>
<path fill="#FAA055" opacity="1.000000" stroke="none"
	d="
M19.862553,66.800316
	C19.217203,67.327866 18.434570,67.654625 17.320885,67.991203
	C17.483999,67.423973 17.978168,66.846931 18.723400,66.128021
	C19.263332,66.143356 19.513601,66.347816 19.862553,66.800316
z"/>
<path fill="#3ECC86" opacity="1.000000" stroke="none"
	d="
M23.363373,109.051964
	C24.399624,108.007843 25.851128,107.046280 27.635891,106.030334
	C33.338909,106.317474 38.721272,106.536652 44.069462,107.087593
	C45.386158,107.223236 46.591503,108.439766 47.836250,109.541931
	C39.809181,109.661156 31.793903,109.397842 23.363373,109.051964
z"/>
</svg>
